<svg width="1236" height="1352" viewBox="0 0 1236 1352" fill="none" xmlns="http://www.w3.org/2000/svg">
<path d="M147.982 426.78C149.711 418.603 156.066 394.789 159.626 358.638C168.35 270.061 183.682 222.748 196.843 171.773C199.67 160.825 201.775 155.707 204.969 151.853C211.321 144.189 222.704 142.113 232.864 140.638C250.851 138.028 276.101 162.897 298.899 184.889C321.621 206.806 346.809 255.297 364.666 274.394C377.537 288.159 407.008 263.294 463.515 258.477C578.273 248.694 657.615 258.567 666.326 258.283C688.658 257.555 690.188 221.708 701.551 204.063C713.426 185.625 726.845 165.362 738.208 150.974C749.751 136.36 757.706 124.815 765.535 120.386C782.682 110.687 797.82 144.962 810.929 161.563C826.504 181.286 842.053 198.482 854.577 215.675C863.61 233.445 875.218 250.849 890.929 276.448C894.455 282.321 896.759 286.354 902.624 292.254" stroke="black" stroke-width="40" stroke-linecap="round"/>
<path d="M153.37 421.731C145.21 434.98 126.406 472.248 114.933 488.586C103.456 504.93 101.698 526.36 82.3645 602.101C72.0568 642.483 76.9782 684.056 78.4357 707.333C79.8271 729.552 88.6037 750.946 96.162 775.41C102.549 796.084 107.212 813.821 113.906 831.871C121.55 852.482 140.308 869.645 153.46 887.45C166.238 904.747 188.625 910.456 211.021 921.794C230.011 931.408 250.279 938.386 269.515 943.64C287.925 948.668 310.187 948.894 355.685 951.792C431.945 956.648 487.729 951.222 498.464 949.169C509.668 947.026 573.315 947.098 662.897 946.516C709.023 946.217 728.566 936.559 770.983 924.231C794.017 917.537 810.643 908.397 848.094 886.085C869.127 873.555 887.413 861.377 904.912 848.75C921.365 836.878 937.476 824.967 953.5 813.203C968.365 802.291 981.115 787.974 995.115 774.169C1008.49 760.984 1016.06 741.041 1019.01 714.309C1021.35 693.158 1025.42 627.118 1021.33 584.123C1019.24 562.129 1003.14 545.145 989.066 521.697C976.851 501.35 966.748 484.687 954.403 467.348C939.595 446.55 927.976 428.908 916.503 413.302C906.211 397.132 893.328 381.888 883.6 366.021C880.957 361.891 877.467 357.825 868.585 343.062" stroke="black" stroke-width="40" stroke-linecap="round"/>
<path d="M859.756 273.676C869.008 276.556 888.768 287.012 904.504 303.569C920.381 320.274 929.509 337.04 942.915 350.717C956.657 364.735 965.014 384.729 974.353 401.33C979.031 419.676 981.929 433.064 985.123 441.478C986.59 445.859 987.742 450.467 990.674 463.943" stroke="black" stroke-width="40" stroke-linecap="round"/>
<path d="M967.764 375.941C972.965 379.398 983.439 394.479 993.328 409.343C1003.43 424.532 1012.52 441.61 1018.08 459.659C1023.65 477.737 1027.08 495.723 1027.99 573.174C1021.83 603.407 1016.54 616.202 1012.44 624.913C1010.09 629.015 1007.18 632.471 1002.42 637.777" stroke="black" stroke-width="40" stroke-linecap="round"/>
<path d="M1005.78 472.637C1009.81 476.11 1024.91 485.379 1033.4 501.081C1043.04 518.925 1038.95 550.978 1041.84 581.028C1046.29 627.165 1034.82 645.937 1029.54 665.444C1021.89 689.035 1017.2 708.778 1011.62 726.845C1009.57 730.947 1006.66 734.403 996.616 748.437" stroke="black" stroke-width="40" stroke-linecap="round"/>
<path d="M435.028 722.926C428.02 717.68 393.485 663.814 364.411 591.774C345.228 544.238 348.606 500.929 349.47 482.408C349.828 474.731 352.062 470.711 356.256 471.616C392.373 479.41 416.17 549.738 431.889 573.504C443.882 591.637 424.589 498.389 426.029 442.258C426.481 424.641 430.349 429.303 434.104 437.913C442.4 458.998 449.96 475.881 456.34 484.871C459.84 489.828 463.872 495.589 476.754 506.76" stroke="black" stroke-width="40" stroke-linecap="round"/>
<path d="M564.083 385.274C590.146 422.267 611.621 463.301 618.944 496.984C623.436 517.649 623.713 534.946 620.497 546.051C617.604 556.039 609.05 563.377 601.728 570.638C594.877 577.432 580.341 578.546 563.365 576.801C548.969 575.321 539.826 563.906 534.09 554.442C522.356 535.082 546.716 516.988 566.153 497.712C570.629 493.274 575.169 492.108 579.551 491.206C588.4 489.385 602.981 496.563 619.972 509.52C647.148 530.243 647.099 563.661 647.54 588.173C648.1 619.354 603.203 649.316 556.758 670.117C453.02 716.579 425.919 705.793 405.083 710.453C384.662 715.021 357.961 724.959 337.044 737.187C328.308 742.294 326.708 754.058 326.115 764.505C324.942 785.16 336.559 798.29 338.015 806.128C341.638 825.635 304.909 830.287 283.8 833.237C264.471 835.938 243.368 830.9 225.101 821.507C207.342 812.374 202.763 789.837 192.18 771.029C182.053 753.032 179.253 730.533 176.002 671.931C174.832 650.856 168.062 638.854 167.181 628.597C166.75 623.584 166.882 618.922 166.882 628.622C166.882 662.516 168.61 692.051 170.347 693.799C195.661 719.265 170.237 625.194 175.491 606.092C181.04 585.921 186.541 567.12 191.489 542.206C195.871 520.148 208.605 499.659 222.866 479.983C246.053 447.993 266.632 422.894 285.318 405.23C300.994 390.412 317.882 378.216 341.726 367.325C360.841 358.593 381.874 358.795 442.533 357.015C460.425 355.27 469.781 352.908 498.941 351.146C523.493 350.547 567.848 350.547 613.547 350.547" stroke="black" stroke-width="150" stroke-linecap="round"/>
<path d="M548.39 332.789C552.998 328.7 596.917 323.977 626.88 329.188C645.21 332.376 664.087 341.398 682.729 346.364C700.922 351.211 721.097 352.465 739.173 358.575C749.026 361.193 758.976 363.532 768.263 366.43C772.941 368.175 777.549 370.479 791.025 374.599" stroke="black" stroke-width="150" stroke-linecap="round"/>
<path d="M759.336 339.253C769.739 334.583 824.573 328.679 860.934 333.889C882.583 336.992 897.888 358.877 906.659 374.003C915.624 389.461 914.82 409.464 919.76 428.107C924.436 445.753 927.039 464.729 931.394 485.702C935.776 506.805 938.664 527.57 940.715 554.05C942.699 579.659 942.762 609.612 935.131 639.278C929.45 661.362 925.138 680.028 918.97 698.959C912.553 718.654 909.277 738.784 900.774 755.995C891.969 773.817 871.14 785.949 857.614 799.643C842.165 815.284 821.23 820.302 802.408 828.471C783.96 836.478 760.213 835.454 601.262 835.768C549.679 830.772 535.049 829.591 524.534 829.01C519.238 828.428 514.02 827.265 501.612 826.067" stroke="black" stroke-width="150" stroke-linecap="round"/>
<path d="M434.743 742.783C430.982 723.528 422.183 686.91 418.385 678.996C410.344 662.242 377.681 673.34 343.117 672.227C285.944 670.387 260.884 653.242 251.471 647.273C247.074 644.485 245.177 639.837 245.707 635.707C248.678 612.544 276.435 584.211 295.662 559.246C308.743 542.262 325.311 527.331 351.299 509.743C369.866 497.178 410.869 483.966 476.222 472.419C552.442 458.951 600.224 470.221 608.35 474.855C617.631 480.149 622.934 491.709 626.713 505.621C628.885 513.615 628.764 524.141 625.286 533.515C612.541 567.865 580.264 577.207 553.312 592.673C531.968 604.92 455.77 584.028 402.095 573.152C362.746 565.179 341.491 556.584 336.489 550.733C324.826 537.09 363.36 516.786 396.933 492.905C429.552 469.703 478.09 460.388 540.854 457.977C586.406 456.227 641.058 463.502 661.141 472.195C674.748 480.294 687.072 486.77 696.934 491.981C702.188 495.463 707.949 500.647 713.884 505.989" stroke="black" stroke-width="150" stroke-linecap="round"/>
<path d="M183.028 711.444C183.604 718.374 185.926 738.116 188.536 753.854C190.669 766.713 177.06 724.54 170.601 711.518C169.813 709.929 167.085 715.436 166.762 719.806C165.425 737.906 175.167 754.968 179.81 773.611C184.803 793.656 195.486 810.268 205.688 825.698C217.294 843.251 237.938 859.144 256.275 865.017C277.26 871.739 392.91 873.178 463.981 871.715C488.821 871.204 509.654 866.129 528.585 862.912C549.217 859.407 570.155 856.154 595.475 854.973C618.653 853.892 640.572 850.867 659.215 845.007C677.867 839.144 697.582 834.441 728.409 824.748C749.472 818.126 767.999 808.605 783.456 797.455C799.196 786.1 809.369 775.137 813.146 770.101C822.171 758.068 789.424 805.683 776.153 823.514C764.949 838.568 749.453 852.29 733.614 866.289C717.164 877.356 696.137 891.286 671.223 899.193C663.317 900.083 652.882 900.083 642.131 900.083" stroke="black" stroke-width="150" stroke-linecap="round"/>
<path d="M327.088 884.09C332.866 885.818 347.965 895.087 365.709 900.079C385.634 905.685 405.534 909.68 491.705 909.982C526.092 910.103 546.926 904.422 566.162 898.545C575.449 896.773 585.381 894.43 595.54 891.204C600.515 889.724 605.123 888.561 620.345 882.059" stroke="black" stroke-width="150" stroke-linecap="round"/>
<path d="M497.298 860.91C489.127 860.328 471.55 855.658 453.346 853.265C434.275 850.758 403.064 846.794 374.785 840.362C364.824 837.418 349.573 836.22 331.397 835.638C323.683 835.057 319.036 833.894 312.486 832.695" stroke="black" stroke-width="150" stroke-linecap="round"/>
<path d="M500.252 881.153C506.03 887.507 523.434 900.319 542.076 904.125C560.523 907.89 587.357 905.563 605.795 901.759C633.461 896.052 529.707 900.168 517.287 907.447C504.396 915.002 548.56 918.811 589.223 918.823C614.218 918.83 635.804 907.103 656.515 901.508C677.347 895.879 696.934 891.806 715.576 885.946C734.512 879.994 749.894 867.168 768.511 853.378C795.218 833.594 813.887 823.708 830.793 813.407C847.716 803.096 862.763 787.298 885.464 767.331C902.925 751.972 916.911 735.626 930.011 718.557C942.115 702.788 951.264 687.443 961.152 670.974C970.814 654.882 968.754 617.169 951.8 551.266C946.294 529.864 932.966 522.064 924.483 516.786C900.837 502.074 860.863 512.008 839.451 515.203C820.859 517.976 805.379 551.665 782.57 582.394C757.757 615.822 732.849 651.522 719.645 671.499C714.186 679.757 707.043 687.499 698.574 693.894C694.578 696.911 689.506 696.827 684.498 695.957C679.489 695.088 674.266 692.762 670.122 689.528C665.977 686.294 663.069 682.223 661.28 676.243C657.283 662.88 670.541 608.873 690.342 537.199C703.792 488.514 735.073 456.748 756.712 429.282C763.89 420.171 773.758 416.49 782.459 412.655C786.816 410.735 792.313 412.869 796.424 416.913C814.255 434.454 810.432 459.324 812.777 478.561C817.405 516.526 813.906 575.126 819.44 596.945C827.29 627.9 809.124 656.794 801.62 682.633C795.769 702.777 772.08 718.671 746.277 732.662C717.377 748.332 698.177 757.703 663.777 763.829C620.542 760.416 573.819 747.646 545.728 740.017C540.408 737.955 536.337 735.629 523.331 729.708" stroke="black" stroke-width="150" stroke-linecap="round"/>
<path d="M159.463 757.719C159.463 758.871 160.615 764.649 162.649 775.096C164.106 785.543 166.428 794.917 169.622 803.331C171.088 807.712 172.24 812.32 173.427 822.305" stroke="black" stroke-width="150" stroke-linecap="round"/>
<path d="M1115.3 590.773C1136.22 831.556 912 1047.71 614.481 1073.56C316.961 1099.42 58.8117 925.185 37.8872 684.402C16.9627 443.619 241.187 227.466 538.706 201.611C836.225 175.756 1094.38 349.99 1115.3 590.773Z" fill="black"/>
<path d="M208.943 483.678C211.445 478.98 218.311 468.778 220.832 465.831C226.406 459.317 214.717 492.226 205.621 507.405C203.425 509.955 201.261 511.742 198.702 512.482C196.144 513.222 193.257 512.861 185.91 507.023" stroke="black" stroke-width="150" stroke-linecap="round"/>
<path d="M153.11 550.246C149.841 558.151 146.2 571.125 140.925 583.947C133.091 603.938 127.242 625.661 125.968 631.422C125.416 634.325 125.055 637.184 124.683 640.129" stroke="black" stroke-width="150" stroke-linecap="round"/>
<path d="M223.334 735.772C220.436 731.092 211.729 711.529 202.874 682.063C190.914 642.267 187.854 628.319 185.487 616.661C184.894 613.741 184.574 610.846 184.388 584.854C184.202 558.862 184.202 509.851 184.381 483.16C184.621 447.34 187.798 433.566 188.713 407.579C189.224 393.064 193.212 381.533 195.925 369.859C198.606 358.322 200.793 345.835 205.482 330.736C209.885 316.558 212.705 303.264 215.775 289.244C218.736 275.722 222.451 263.58 225.343 251.005C226.726 244.991 227.52 238.061 228.592 233.299C230.71 223.888 241.923 249.453 248.972 259.383C257.52 271.424 268.281 283.738 276.04 297.454C283.81 309.382 290.308 319.497 294.093 325.079C295.733 327.803 296.805 330.304 302.242 338.296" stroke="black" stroke-width="150" stroke-linecap="round"/>
<path d="M138.324 561.669C137.963 557.689 137.231 510.752 138.487 480.889C138.988 468.988 143.707 456.857 147.145 444.645C150.708 431.991 153.107 420.426 156.529 408.751C159.949 397.082 162.853 384.738 165.555 372.87C168.139 361.517 171.863 349.386 177.998 335.546C184.07 321.847 187.024 309.696 191.361 298.575C195.612 287.675 197.138 274.37 202.006 263.232C206.873 252.097 211.931 241.923 214.471 229.71C216.263 223.708 218.44 217.848 220.957 212.392C222.403 209.822 224.19 207.658 228.197 198.867" stroke="black" stroke-width="150" stroke-linecap="round"/>
<path d="M817.153 260.845C813.537 257.947 802.651 247.79 792.787 238.466C775.819 222.426 789.819 182.952 792.516 178.223C793.871 175.845 796.284 174.216 798.997 173.104C801.71 171.993 804.926 171.629 807.655 172.334C818.957 175.257 827.689 185.656 836.185 193.063C844.859 200.627 851.167 210.91 857.849 220.131C864.759 229.669 870.66 240.149 878.419 250.09C885.56 259.24 891.95 269.388 899.178 279.687C907.208 291.127 914.691 302.959 921.741 312.18C928.781 321.387 934.899 332.198 941.775 342.139C948.726 352.187 956.557 362.52 963.434 372.997C971.089 384.66 977.848 397.152 984.735 409.275C990.572 419.549 996.279 429.661 1000.63 440.859C1005.17 452.547 1007.48 466.113 1009.12 480.554C1011.98 505.71 1011.11 542.633 1005.84 560.138C1003.83 567.54 1002 573.355 999.278 578.575C997.638 581.293 995.474 584.152 993.243 588.18" stroke="black" stroke-width="150" stroke-linecap="round"/>
<path d="M932.943 533.026C920.832 515.284 896.169 476.451 881.803 450.741C873.452 435.795 867.573 419.131 862.929 401.75C854.239 369.222 849.409 338.935 845.773 322.242C842.185 305.764 838.847 292.074 835.02 277.683C831.712 265.24 830.1 252.766 826.274 238.411C822.916 225.815 818.445 212.764 815.882 199.808C813.472 187.633 809.327 175.59 805.325 164.263C804.373 161.568 800.624 160.611 799.85 161.119C791.937 166.306 812.043 180.372 818.551 190.67C826.233 202.826 834.069 213.942 841.829 224.062C849.592 234.187 857.526 245.694 864.754 255.651C871.851 265.427 878.101 274.954 884.61 284.706C891.753 295.41 900.474 307.052 908.791 318.277C915.842 327.792 921.418 337.764 926.849 347.337C932.855 357.923 939.828 369.884 946.158 380.724C951.872 390.51 958.238 399.491 964.746 410.315C974.896 427.195 982.062 441.725 986.594 452.733C991.86 465.522 999.757 474.928 1005.9 485.405C1012.33 496.368 1013.49 509.213 1016.56 520.958C1017.46 524.039 1018.54 527.255 1019.27 530.341C1020 533.428 1020.35 536.287 1020.72 540.315" stroke="black" stroke-width="150" stroke-linecap="round"/>
<path d="M1016.13 471.109C1017.2 474.694 1020.81 485.491 1024.42 496.157C1028.23 507.408 1026.96 533.724 1028.76 552.643C1029.99 565.621 1021.9 581.04 1013.77 595.859C1004.9 612.026 992.72 630.892 980.24 649.806C977.157 654.577 974.992 658.508 972.073 661.427C969.154 664.345 965.546 666.132 960.735 667.973" stroke="black" stroke-width="150" stroke-linecap="round"/>
<path d="M171.947 572.323C171.225 573.037 170.132 576.622 168.678 579.514C159.681 597.408 165.398 533.654 162.316 530.896C150.183 520.037 140.866 562.828 136.222 581.661C133.39 593.149 131.226 602.015 130.319 604.366C128.307 584.464 128.833 556.823 129.629 546.008C129.9 539.791 129.9 532.094 132.066 523.07" stroke="black" stroke-width="150" stroke-linecap="round"/>
<path d="M132.066 523.07C131.705 527.37 130.251 540.332 129.517 553.344C127.321 565.998 126.589 578.235 124.774 592.134C124.402 597.002 124.402 603.792 126.568 618.368" stroke="black" stroke-width="150" stroke-linecap="round"/>
<path d="M108.181 664.314C107.095 659.6 103.444 646.465 101.789 623.553C96.8333 554.974 104.86 531.608 106.842 512.345C108.178 499.36 109.552 486.985 112.994 474.186C117.279 458.257 117.87 441.741 119.336 424.062C120.929 404.85 123.669 391.824 126.739 379.42C130.194 365.46 133.432 351.752 136.69 336.992C140.883 317.995 144.661 307.328 150.612 287.524C158.7 260.61 161.298 246.497 164.567 232.261C167.916 217.672 175.741 190.851 180.856 172.116C182.434 166.337 184.831 161.16 188.977 157.69C191.04 155.964 194.196 156.029 196.925 156.738C208.559 159.762 213.045 174.791 217.942 184.939C222.983 195.384 230.051 205.914 234.954 218.408C241.679 235.544 251.77 245.378 260.173 258.467C277.699 285.768 287.276 300.95 297.027 317.01C300.335 322.203 304.953 328.592 308.227 333.316C311.502 338.041 313.294 340.908 314.002 343.809" stroke="black" stroke-width="150" stroke-linecap="round"/>
<path d="M208.643 194.511C207.561 193.067 206.479 191.623 205.74 189.071C205.002 186.518 204.64 182.9 204.268 179.172" stroke="black" stroke-width="150" stroke-linecap="round"/>
<path d="M207.525 162.727C211.478 163.443 221.599 169.916 229.038 180.064C236.228 189.872 243.688 199.606 249.313 209.385C255.942 220.908 264.69 230.729 271.57 240.878C279.573 252.684 290.732 267.63 301.423 279.245C311.768 290.483 319.674 305.935 332.974 323.183C338.193 329.121 345.698 337.154 353.086 343.759C360.474 350.364 367.517 355.298 374.774 360.382" stroke="black" stroke-width="150" stroke-linecap="round"/>
<path d="M767.516 289.566C770.763 285.575 777.246 271.015 783.605 257.816C788.139 246.48 791.038 235.563 793.748 224.04C794.654 221.284 795.729 218.755 797.923 209.57" stroke="black" stroke-width="150" stroke-linecap="round"/>
<path d="M779.284 253.008C779.284 225.933 782.868 163.065 786.153 149.144C790.133 136.38 793.749 122.538 797.729 109.933C798.821 106.811 799.896 103.92 801.003 97.6523" stroke="black" stroke-width="150" stroke-linecap="round"/>
<path d="M768.195 209.984C766.737 207.812 768.152 190.287 771.6 178.05C775.389 164.605 780.098 150.872 782.645 138.621C783.296 135.488 784.442 132.247 783.545 132.887C771.157 141.725 768.391 158.423 763.627 171.666C758.624 185.574 757.054 197.539 754.845 210.038C754.303 213.108 754.116 216 753.93 215.486C749.274 202.627 758.435 185.104 762.056 173.033C765.499 161.557 768.925 147.507 772.373 133.813C775.496 121.41 779.068 109.216 782.147 97.6869C785.045 86.8344 789.928 79.5798 793.533 75.9181C795.25 74.1739 798.572 75.1406 801.482 76.9343C813.933 84.6078 817.055 97.1786 825.205 109.483C831.764 119.384 838.405 128.671 846.924 141.155C854.717 152.573 865.532 168.439 875.159 181.884C882.832 192.598 889.098 202.148 894.354 214.457C901.732 231.737 916.737 249.64 922.921 260.527C929.091 271.388 933.417 287.975 938.752 303.012C945.075 320.834 949.849 332.724 953.666 343.774C957.412 354.619 962.164 368.17 965.612 380.876C969.776 393.549 972.676 408.003 975.272 424.296C975.729 429.802 975.729 436.969 975.729 444.354" stroke="black" stroke-width="150" stroke-linecap="round"/>
<path d="M837.039 125.688C839.916 127.838 847.138 136.504 853.127 146.283C858.929 155.756 865.599 165.455 872.848 174.882C881.241 185.795 888.774 196.948 895.653 208.72C901.727 219.113 910.124 228.441 918.453 242.016C925.284 253.148 932.929 263.192 940.9 273.699C949.034 284.421 953.562 295.771 959.91 306.82C965.95 317.336 972.024 326.547 979.093 336.505C986.37 346.755 990.137 358.387 996.648 373.232C1001.5 384.298 1006.8 394.941 1009.7 407.087C1012.62 419.319 1015.85 430.778 1019.46 445.264C1023.53 461.558 1027.06 473.869 1029.61 485.999C1032.21 498.398 1035.4 511.139 1037.57 533.678C1043.85 598.833 1030.68 620.017 1025.35 637.485C1022.26 645.06 1017.14 653.78 1008.78 664.243C1003.68 670.048 996.831 676.857 988.676 683.872" stroke="black" stroke-width="150" stroke-linecap="round"/>
<path d="M320.413 1266.93C321.995 1259.44 325.208 1240.16 328.389 1218.42C334.388 1177.43 356.512 1122.59 369.029 1099.74C378.03 1083.31 389.538 1068.82 401.799 1055.9C414.83 1042.16 426.305 1029.11 443.074 1015.41C458.212 1003.04 477.939 994.724 493.708 984.763C511.389 973.594 536.03 972.112 632.591 970.73C676.958 970.095 704.168 982.669 729.329 989.894C746.814 994.915 768.174 1001.85 786.893 1012.52C801.559 1020.88 815.651 1028.52 831.125 1041.54C849.741 1057.22 861.466 1090.25 872.44 1108.41C874.846 1112.7 877.484 1116.92 880.549 1125C883.615 1133.09 887.029 1144.91 895.342 1166.68" stroke="black" stroke-width="150" stroke-linecap="round"/>
<path d="M352.107 1263.46C361.634 1260.26 386.092 1251.65 405.059 1247.07C424.27 1242.44 442.074 1237.12 463.391 1231.47C482.99 1226.28 503.331 1222.59 534.223 1220.7C557.856 1219.25 573.156 1209.68 594.201 1206.17C618.71 1202.07 633.901 1195.66 652.301 1190.84C669.874 1186.24 687.709 1181.17 708.506 1178.72C730.936 1176.08 752.707 1168.76 770.866 1166.07C779.371 1163.4 788.466 1160.69 798.034 1158.27C802.853 1156.92 807.601 1155.33 823.683 1150.45" stroke="black" stroke-width="150" stroke-linecap="round"/>
<path d="M326.822 1237.87C328.932 1238.92 333.185 1242.1 340.618 1246.1C357.064 1254.94 377.337 1239.42 403.985 1236.98C440.724 1233.61 488.725 1230.8 506.061 1229.44C524.569 1227.98 542.532 1223.8 564.656 1222.72C592.364 1221.36 630.985 1212.61 652.575 1210.46C672.646 1208.45 694.897 1203.47 716.766 1198.37C740.219 1192.89 756.73 1188.95 772.476 1183.57C789.071 1177.89 806.829 1176.59 823.358 1171.72C827.642 1170.63 831.862 1169.57 838.52 1169.02C845.178 1168.47 854.146 1168.47 863.386 1166.86" stroke="black" stroke-width="150" stroke-linecap="round"/>
<path d="M511.302 1135.34C502.791 1130.02 494.678 1124.61 488.76 1118.45C473.944 1103.02 496.847 1069.83 513.856 1051.04C536.856 1025.62 572.873 1028.72 652.019 1030.23C690.674 1030.96 709.438 1042.94 727.07 1051.74C734.733 1055.57 740.946 1062.14 746.259 1068.25C748.772 1071.14 747.317 1075.94 744.633 1079.43C738.743 1087.09 727.981 1090.39 718.896 1093.32C699.96 1099.43 684.063 1084.52 641.053 1063.31C629.963 1058.68 622.537 1056.55 615.516 1057.04C608.495 1057.52 602.104 1060.69 587.449 1063.95" stroke="black" stroke-width="150" stroke-linecap="round"/>
<path d="M350.555 1262.75C361.121 1262.75 387.769 1260.62 405.625 1255.51C431.639 1248.05 448.515 1248.78 467.977 1247.43C485.503 1246.21 501.811 1236.96 518.34 1233.44C535.498 1229.79 552.421 1226.18 571.348 1222.42C591.934 1218.33 611.024 1212.75 629.967 1207.9C647.279 1203.46 665.375 1200.36 682.992 1195.52C687.276 1194.43 691.496 1193.9 695.78 1193.1C700.064 1192.29 704.284 1191.22 710.231 1188.51" stroke="black" stroke-width="150" stroke-linecap="round"/>
<path d="M396.39 1257.03C400.083 1257.03 416.02 1252.71 435.731 1249.48C465.826 1244.55 483.16 1243.03 500.76 1240.34C520.634 1237.31 535.913 1231.18 554.048 1227.7C571.904 1224.28 592.917 1220.98 612.652 1218.01C617.999 1217.2 623.802 1216.14 628.637 1214.79C633.473 1213.44 637.166 1211.85 640.97 1210.2" stroke="black" stroke-width="150" stroke-linecap="round"/>
<path d="M327.944 1267.67C333.763 1268.73 352.882 1270.87 372.624 1274.85C397.212 1279.81 414.714 1271.37 434.161 1268.15C462.874 1263.38 483.42 1265.98 530.354 1263.3C619.698 1258.2 687.013 1261.16 718.622 1258.74C829.661 1250.23 848.042 1255.23 869.639 1253.89C879.243 1253.29 887.527 1248.78 895.24 1245.57C905.67 1232.14 910.466 1218.69 912.597 1210.91C913.146 1206.86 912.614 1202.6 907.223 1193.37" stroke="black" stroke-width="150" stroke-linecap="round"/>
<path d="M855.961 1146.78C866.048 1156.88 880.931 1167.5 894.015 1180.57C904.43 1195.23 912.934 1210.12 923.069 1224.26C924.7 1228.26 924.7 1233.01 926.298 1242.69" stroke="black" stroke-width="150" stroke-linecap="round"/>
<path d="M1177.15 737.91C1177.58 742.65 1179.31 756.505 1182.99 769.331C1186.9 782.938 1184.96 843.723 1181.25 881.094C1179.83 895.423 1173.15 909.715 1169.2 925.361C1165.37 940.499 1161.32 955.29 1155.41 968.989C1148.33 985.385 1139.42 997.402 1126.3 1017.57C1114 1036.49 1095.88 1061.37 1078.38 1084.43C1068.77 1097.09 1058.25 1107.44 1043.6 1120.9C1030.8 1132.66 1017.15 1140.44 1005.09 1149.35C991.963 1159.05 978.611 1163.9 961.779 1166.73C944.04 1171.73 933.539 1173.46 926.343 1174.76C922.609 1175.21 918.709 1175.21 914.69 1175.21" stroke="black" stroke-width="100" stroke-linecap="round"/>
</svg>
