<svg width="1754" height="1405" viewBox="0 0 1754 1405" fill="none" xmlns="http://www.w3.org/2000/svg">
<path d="M270.549 477.547C271.13 470.493 272.31 441.074 277.704 410.183C282.678 381.695 292.477 356.349 296.025 337.996C299.797 318.487 307.661 285.321 319.687 244.756C329.686 211.027 334.208 179.403 338.015 159.539C343.748 129.634 354.725 99.5941 361.488 76.2366C367.076 56.9371 373.516 45.076 381.406 39.7419C400.64 26.7383 421.014 50.7844 437.471 63.711C452.477 75.4973 468.564 84.8444 483.85 96.2916C501.216 109.296 516.713 119.468 532.572 131.514C549.678 144.508 567.75 161.699 587.157 178.465C604.344 193.313 617.096 207.524 631.493 221.613C648.035 237.8 660.525 255.637 676.111 270.633C681.694 278.532 688.157 287.373 696.646 297.032C701.066 302.043 705.716 307.273 719.311 319.707" stroke="white" stroke-width="70" stroke-linecap="round"/>
<path d="M273.563 472.992C270.042 481.745 258.201 500.501 247.23 515.497C235.89 530.998 225.022 550.376 212.874 568.321C200.726 586.268 187.736 611.944 175.823 637.868C167.006 657.055 162.772 676.014 156.549 697.746C150.523 718.789 146.165 741.175 140.546 758.522C134.368 777.596 133.15 799.292 131.627 916.036C130.9 971.772 134.259 1025.88 135.149 1057.51C137.035 1124.58 143.629 1144.47 146.887 1167.06C147.767 1218.93 151.272 1267.15 154.512 1313.16C155.393 1323.56 156.555 1328.79 157.753 1335.94" stroke="white" stroke-width="70" stroke-linecap="round"/>
<path d="M47.3613 777.121C57.294 770.613 97.9155 768.231 135.595 769.692C189.92 770.573 205.171 772.915 225.019 774.676C239.055 775.275 261.139 775.275 296.22 777.036" stroke="white" stroke-width="70" stroke-linecap="round"/>
<path d="M35 910.051C43.154 908.291 65.4321 903.544 95.8755 895.589C133.268 885.818 170.195 872.866 192.817 867.808C213.358 863.214 233.596 861.594 253.003 855.661C257.723 854.458 262.372 853.866 267.092 852.974C271.812 852.082 276.461 850.908 283.012 849.699" stroke="white" stroke-width="70" stroke-linecap="round"/>
<path d="M60.5869 1025.15C66.9974 1023.98 86.898 1016.9 109.211 1011.25C146.622 1001.77 173.193 994.357 192.01 985.778C214.429 975.557 231.908 968.291 252.179 959.987C257.198 958.192 261.847 957.018 266.276 954.653C270.706 952.288 274.774 948.768 278.965 945.141" stroke="white" stroke-width="70" stroke-linecap="round"/>
<path d="M642.618 683.141C647.884 687.79 652.005 701.879 651.712 710.957C651.566 715.47 648.491 719.455 644.935 722.132C641.379 724.809 636.685 725.971 631.626 725.396C626.567 724.821 621.287 722.474 617.686 719.215C614.086 715.955 612.325 711.853 611.997 707.393C611.668 702.933 612.825 698.239 615.455 694.647C618.085 691.055 622.153 688.708 626.283 688.366C630.413 688.023 634.481 689.755 640.434 703.868" stroke="white" stroke-width="70" stroke-linecap="round"/>
<path d="M865.484 872.273C860.186 866.393 851.278 853.958 850.645 846.561C849.201 829.697 875.248 828.443 884.035 828.118C888.257 827.962 891.661 831.872 890.817 833.369C889.973 834.866 884.692 834.866 881.092 836.9C877.491 838.934 875.731 843.002 875.405 847.423C874.736 856.506 881.508 864.77 889.706 870.925C893.637 873.877 897.904 875.336 900.287 873.597C902.671 871.857 903.246 866.582 902.956 861.518C902.666 856.453 901.492 851.759 896.727 852.155" stroke="white" stroke-width="70" stroke-linecap="round"/>
<path d="M891.393 857.438C888.441 862.087 884.885 880.825 880.449 899.634C875.856 919.106 865.362 938.343 852.329 953.955C846.31 961.166 837.5 964.848 828.93 967.78C811.804 973.64 794.276 958.343 778.834 947.968C775.838 944.705 774.077 940.598 771.704 936.722C769.33 932.845 766.396 929.325 759.817 916.807" stroke="white" stroke-width="70" stroke-linecap="round"/>
<path d="M734.823 323.752C744.756 318.435 763.494 311.341 786.688 308.927C796.955 307.164 808.72 305.954 828.585 305.952C841.476 305.949 860.074 305.943 879.235 305.938" stroke="white" stroke-width="70" stroke-linecap="round"/>
<path d="M465.406 258.117C470.654 261.023 485.87 272.734 498.242 287.995C507.638 303.29 516.461 313.258 519.974 321.746C521.744 326.167 523.488 330.816 525.284 339.128" stroke="white" stroke-width="70" stroke-linecap="round"/>
<path d="M1482.61 477.859C1482.03 470.806 1480.85 441.386 1475.46 410.496C1470.48 382.007 1460.69 356.662 1457.14 338.308C1453.37 318.8 1445.5 285.633 1433.48 245.068C1423.48 211.339 1418.95 179.716 1415.15 159.852C1409.42 129.947 1398.44 99.9066 1391.67 76.5491C1386.09 57.2496 1379.65 45.3885 1371.76 40.0544C1352.52 27.0508 1332.15 51.0969 1315.69 64.0235C1300.69 75.8098 1284.6 85.1569 1269.31 96.6041C1251.95 109.608 1236.45 119.78 1220.59 131.826C1203.48 144.82 1185.41 162.012 1166.01 178.778C1148.82 193.625 1136.07 207.836 1121.67 221.925C1105.13 238.112 1092.64 255.95 1077.05 270.946C1071.47 278.844 1065.01 287.685 1056.52 297.345C1052.1 302.355 1047.45 307.586 1033.85 320.019" stroke="white" stroke-width="70" stroke-linecap="round"/>
<path d="M1479.6 473.301C1483.12 482.054 1494.96 500.809 1505.93 515.805C1517.27 531.307 1528.14 550.684 1540.29 568.63C1552.44 586.577 1565.43 612.253 1577.34 638.176C1586.16 657.364 1590.39 676.322 1596.61 698.054C1602.64 719.098 1607 741.483 1612.62 758.83C1618.79 777.905 1620.01 799.6 1621.54 916.344C1622.26 972.081 1618.9 1026.19 1618.01 1057.81C1616.13 1124.89 1609.53 1144.78 1606.28 1167.36C1605.4 1219.24 1601.89 1267.46 1598.65 1313.47C1597.77 1323.87 1596.61 1329.1 1595.41 1336.25" stroke="white" stroke-width="70" stroke-linecap="round"/>
<path d="M1705.8 777.429C1695.87 770.922 1655.25 768.539 1617.57 770.001C1563.24 770.881 1547.99 773.224 1528.14 774.985C1514.11 775.584 1492.02 775.584 1456.94 777.345" stroke="white" stroke-width="70" stroke-linecap="round"/>
<path d="M1718.16 910.36C1710.01 908.6 1687.73 903.852 1657.29 895.897C1619.89 886.126 1582.97 873.175 1560.35 868.116C1539.8 863.523 1519.57 861.902 1500.16 855.97C1495.44 854.767 1490.79 854.174 1486.07 853.282C1481.35 852.39 1476.7 851.217 1470.15 850.008" stroke="white" stroke-width="70" stroke-linecap="round"/>
<path d="M1692.58 1025.46C1686.17 1024.29 1666.26 1017.21 1643.95 1011.56C1606.54 1002.08 1579.97 994.666 1561.15 986.087C1538.73 975.866 1521.25 968.599 1500.98 960.296C1495.96 958.5 1491.32 957.327 1486.89 954.962C1482.46 952.597 1478.39 949.076 1474.2 945.449" stroke="white" stroke-width="70" stroke-linecap="round"/>
<path d="M1110.54 683.449C1105.28 688.099 1101.16 702.187 1101.45 711.266C1101.6 715.778 1104.67 719.763 1108.23 722.44C1111.78 725.117 1116.48 726.28 1121.54 725.705C1126.6 725.13 1131.88 722.783 1135.48 719.523C1139.08 716.263 1140.84 712.161 1141.17 707.701C1141.49 703.241 1140.34 698.547 1137.71 694.956C1135.08 691.364 1131.01 689.017 1126.88 688.674C1122.75 688.331 1118.68 690.064 1112.73 704.176" stroke="white" stroke-width="70" stroke-linecap="round"/>
<path d="M887.678 872.581C892.977 866.702 901.885 854.267 902.518 846.87C903.961 830.006 877.915 828.752 869.127 828.426C864.905 828.27 861.501 832.181 862.346 833.678C863.19 835.175 868.47 835.175 872.071 837.209C875.672 839.243 877.432 843.311 877.757 847.731C878.427 856.815 871.655 865.078 863.457 871.233C859.525 874.185 855.259 875.645 852.875 873.906C850.492 872.166 849.916 866.891 850.207 861.826C850.497 856.762 851.67 852.068 856.436 852.464" stroke="white" stroke-width="70" stroke-linecap="round"/>
<path d="M861.77 857.75C864.722 862.399 868.278 881.138 872.714 899.946C877.307 919.419 887.801 938.656 900.834 954.268C906.853 961.478 915.663 965.16 924.233 968.093C941.359 973.952 958.887 958.655 974.329 948.28C977.325 945.017 979.086 940.91 981.459 937.034C983.833 933.158 986.767 929.637 993.346 917.12" stroke="white" stroke-width="70" stroke-linecap="round"/>
<path d="M1018.34 324.064C1008.41 318.748 989.669 311.654 966.475 309.239C956.208 307.476 944.443 306.267 924.578 306.264C911.687 306.261 893.089 306.256 873.928 306.25" stroke="white" stroke-width="70" stroke-linecap="round"/>
<path d="M1287.76 258.43C1282.51 261.336 1267.29 273.047 1254.92 288.307C1245.52 303.602 1236.7 313.57 1233.19 322.059C1231.42 326.479 1229.67 331.129 1227.88 339.441" stroke="white" stroke-width="70" stroke-linecap="round"/>
<path d="M268.549 477.547C269.13 470.493 270.31 441.074 275.704 410.183C280.678 381.695 290.477 356.349 294.025 337.996C297.797 318.487 305.661 285.321 317.687 244.756C327.686 211.027 332.208 179.403 336.015 159.539C341.748 129.634 352.725 99.5941 359.488 76.2366C365.076 56.9371 371.516 45.076 379.406 39.7419C398.64 26.7383 419.014 50.7844 435.471 63.711C450.477 75.4973 466.564 84.8444 481.85 96.2916C499.216 109.296 514.713 119.468 530.572 131.514C547.678 144.508 565.75 161.699 585.157 178.465C602.344 193.313 615.096 207.524 629.493 221.613C646.035 237.8 658.525 255.637 674.111 270.633C679.694 278.532 686.157 287.373 694.646 297.032C699.066 302.043 703.716 307.273 717.311 319.707" stroke="black" stroke-width="40" stroke-linecap="round"/>
<path d="M271.563 472.992C268.042 481.745 256.201 500.501 245.23 515.497C233.89 530.998 223.022 550.376 210.874 568.321C198.726 586.268 185.736 611.944 173.823 637.868C165.006 657.055 160.772 676.014 154.549 697.746C148.523 718.789 144.165 741.175 138.546 758.522C132.368 777.596 131.15 799.292 129.627 916.036C128.9 971.772 132.259 1025.88 133.149 1057.51C135.035 1124.58 141.629 1144.47 144.887 1167.06C145.767 1218.93 149.272 1267.15 152.512 1313.16C153.393 1323.56 154.555 1328.79 155.753 1335.94" stroke="black" stroke-width="40" stroke-linecap="round"/>
<path d="M45.3613 777.121C55.294 770.613 95.9155 768.231 133.595 769.692C187.92 770.573 203.171 772.915 223.019 774.676C237.055 775.275 259.139 775.275 294.22 777.036" stroke="black" stroke-width="40" stroke-linecap="round"/>
<path d="M33 910.051C41.154 908.291 63.4321 903.544 93.8755 895.589C131.268 885.818 168.195 872.866 190.817 867.808C211.358 863.214 231.596 861.594 251.003 855.661C255.723 854.458 260.372 853.866 265.092 852.974C269.812 852.082 274.461 850.908 281.012 849.699" stroke="black" stroke-width="40" stroke-linecap="round"/>
<path d="M58.5869 1025.15C64.9974 1023.98 84.898 1016.9 107.211 1011.25C144.622 1001.77 171.193 994.357 190.01 985.778C212.429 975.557 229.908 968.291 250.179 959.987C255.198 958.192 259.847 957.018 264.276 954.653C268.706 952.288 272.774 948.768 276.965 945.141" stroke="black" stroke-width="40" stroke-linecap="round"/>
<path d="M640.618 683.141C645.884 687.79 650.005 701.879 649.712 710.957C649.566 715.47 646.491 719.455 642.935 722.132C639.379 724.809 634.685 725.971 629.626 725.396C624.567 724.821 619.287 722.474 615.686 719.215C612.086 715.955 610.325 711.853 609.997 707.393C609.668 702.933 610.825 698.239 613.455 694.647C616.085 691.055 620.153 688.708 624.283 688.366C628.413 688.023 632.481 689.755 638.434 703.868" stroke="black" stroke-width="40" stroke-linecap="round"/>
<path d="M863.484 872.273C858.186 866.393 849.278 853.958 848.645 846.561C847.201 829.697 873.248 828.443 882.035 828.118C886.257 827.962 889.661 831.872 888.817 833.369C887.973 834.866 882.692 834.866 879.092 836.9C875.491 838.934 873.731 843.002 873.405 847.423C872.736 856.506 879.508 864.77 887.706 870.925C891.637 873.877 895.904 875.336 898.287 873.597C900.671 871.857 901.246 866.582 900.956 861.518C900.666 856.453 899.492 851.759 894.727 852.155" stroke="black" stroke-width="40" stroke-linecap="round"/>
<path d="M889.393 857.438C886.441 862.087 882.885 880.825 878.449 899.634C873.856 919.106 863.362 938.343 850.329 953.955C844.31 961.166 835.5 964.848 826.93 967.78C809.804 973.64 792.276 958.343 776.834 947.968C773.838 944.705 772.077 940.598 769.704 936.722C767.33 932.845 764.396 929.325 757.817 916.807" stroke="black" stroke-width="40" stroke-linecap="round"/>
<path d="M732.823 323.752C742.756 318.435 761.494 311.341 784.688 308.927C794.955 307.164 806.72 305.954 826.585 305.952C839.476 305.949 858.074 305.943 877.235 305.938" stroke="black" stroke-width="40" stroke-linecap="round"/>
<path d="M463.406 258.117C468.654 261.023 483.87 272.734 496.242 287.995C505.638 303.29 514.461 313.258 517.974 321.746C519.744 326.167 521.488 330.816 523.284 339.128" stroke="black" stroke-width="40" stroke-linecap="round"/>
<path d="M1480.61 477.859C1480.03 470.806 1478.85 441.386 1473.46 410.496C1468.48 382.007 1458.69 356.662 1455.14 338.308C1451.37 318.8 1443.5 285.633 1431.48 245.068C1421.48 211.339 1416.95 179.716 1413.15 159.852C1407.41 129.947 1396.44 99.9066 1389.67 76.5491C1384.09 57.2496 1377.65 45.3885 1369.76 40.0544C1350.52 27.0508 1330.15 51.0969 1313.69 64.0235C1298.69 75.8098 1282.6 85.1569 1267.31 96.6041C1249.95 109.608 1234.45 119.78 1218.59 131.826C1201.48 144.82 1183.41 162.012 1164.01 178.778C1146.82 193.625 1134.07 207.836 1119.67 221.925C1103.13 238.112 1090.64 255.95 1075.05 270.946C1069.47 278.844 1063.01 287.685 1054.52 297.345C1050.1 302.355 1045.45 307.586 1031.85 320.019" stroke="black" stroke-width="40" stroke-linecap="round"/>
<path d="M1477.6 473.305C1481.12 482.057 1492.96 500.813 1503.93 515.809C1515.27 531.311 1526.14 550.688 1538.29 568.634C1550.44 586.581 1563.43 612.257 1575.34 638.18C1584.16 657.367 1588.39 676.326 1594.61 698.058C1600.64 719.101 1605 741.487 1610.62 758.834C1616.79 777.909 1618.01 799.604 1619.54 916.348C1620.26 972.085 1616.9 1026.19 1616.01 1057.82C1614.13 1124.89 1607.53 1144.78 1604.28 1167.37C1603.4 1219.24 1599.89 1267.46 1596.65 1313.47C1595.77 1323.87 1594.61 1329.1 1593.41 1336.25" stroke="black" stroke-width="40" stroke-linecap="round"/>
<path d="M1703.8 777.433C1693.87 770.926 1653.25 768.543 1615.57 770.005C1561.24 770.885 1545.99 773.228 1526.14 774.989C1512.11 775.588 1490.02 775.588 1454.94 777.349" stroke="black" stroke-width="40" stroke-linecap="round"/>
<path d="M1716.16 910.364C1708.01 908.604 1685.73 903.856 1655.29 895.901C1617.89 886.13 1580.97 873.179 1558.35 868.12C1537.8 863.527 1517.57 861.906 1498.16 855.973C1493.44 854.77 1488.79 854.178 1484.07 853.286C1479.35 852.394 1474.7 851.221 1468.15 850.012" stroke="black" stroke-width="40" stroke-linecap="round"/>
<path d="M1690.58 1025.47C1684.17 1024.29 1664.26 1017.22 1641.95 1011.56C1604.54 1002.08 1577.97 994.67 1559.15 986.09C1536.73 975.869 1519.25 968.603 1498.98 960.3C1493.96 958.504 1489.32 957.33 1484.89 954.966C1480.46 952.601 1476.39 949.08 1472.2 945.453" stroke="black" stroke-width="40" stroke-linecap="round"/>
<path d="M1108.54 683.453C1103.28 688.102 1099.16 702.191 1099.45 711.27C1099.6 715.782 1102.67 719.767 1106.23 722.444C1109.78 725.121 1114.48 726.283 1119.54 725.709C1124.59 725.134 1129.88 722.787 1133.48 719.527C1137.08 716.267 1138.84 712.165 1139.17 707.705C1139.49 703.245 1138.34 698.551 1135.71 694.96C1133.08 691.368 1129.01 689.021 1124.88 688.678C1120.75 688.335 1116.68 690.067 1110.73 704.18" stroke="black" stroke-width="40" stroke-linecap="round"/>
<path d="M885.678 872.585C890.977 866.705 899.885 854.27 900.518 846.874C901.961 830.01 875.915 828.755 867.127 828.43C862.905 828.274 859.501 832.185 860.346 833.681C861.19 835.178 866.47 835.178 870.071 837.213C873.672 839.247 875.432 843.315 875.757 847.735C876.427 856.819 869.655 865.082 861.457 871.237C857.525 874.189 853.259 875.649 850.875 873.909C848.492 872.17 847.916 866.895 848.207 861.83C848.497 856.766 849.67 852.072 854.436 852.468" stroke="black" stroke-width="40" stroke-linecap="round"/>
<path d="M859.77 857.75C862.721 862.399 866.277 881.138 870.714 899.946C875.306 919.419 885.8 938.656 898.833 954.268C904.852 961.478 913.662 965.16 922.232 968.093C939.358 973.952 956.887 958.655 972.329 948.28C975.325 945.017 977.085 940.91 979.459 937.034C981.833 933.158 984.766 929.637 991.345 917.12" stroke="black" stroke-width="40" stroke-linecap="round"/>
<path d="M1016.34 324.064C1006.41 318.748 987.669 311.654 964.475 309.239C954.208 307.476 942.443 306.267 922.578 306.264C909.687 306.261 891.089 306.256 871.928 306.25" stroke="black" stroke-width="40" stroke-linecap="round"/>
<path d="M1285.76 258.43C1280.51 261.336 1265.29 273.047 1252.92 288.307C1243.52 303.602 1234.7 313.57 1231.19 322.059C1229.42 326.479 1227.67 331.129 1225.88 339.441" stroke="black" stroke-width="40" stroke-linecap="round"/>
</svg>
