<svg width="1754" height="1440" viewBox="0 0 1754 1440" fill="none" xmlns="http://www.w3.org/2000/svg">
<path d="M270.549 477.547C271.13 470.493 272.31 441.074 277.704 410.183C282.678 381.695 292.477 356.349 296.026 337.996C299.798 318.487 307.661 285.321 319.687 244.756C329.686 211.027 334.208 179.403 338.016 159.539C343.748 129.634 354.726 99.5941 361.488 76.2366C367.076 56.9371 373.517 45.076 381.407 39.7419C400.64 26.7383 421.014 50.7844 437.472 63.711C452.477 75.4973 468.564 84.8444 483.851 96.2916C501.216 109.296 516.713 119.468 532.572 131.514C549.679 144.508 567.75 161.699 587.158 178.465C604.344 193.313 617.097 207.524 631.494 221.613C648.035 237.8 660.526 255.637 676.111 270.633C681.694 278.532 688.158 287.373 696.646 297.032C701.066 302.043 705.716 307.273 719.312 319.707" stroke="white" stroke-width="70" stroke-linecap="round"/>
<path d="M273.563 472.99C270.043 481.743 258.201 500.499 247.23 515.495C235.89 530.996 225.023 550.374 212.875 568.319C200.726 586.267 187.736 611.942 175.823 637.866C167.006 657.053 162.772 676.012 156.549 697.744C150.523 718.787 146.165 741.173 140.547 758.52C134.368 777.594 133.15 799.29 131.627 916.034C130.9 971.77 134.26 1025.87 135.149 1057.5C137.035 1124.58 143.629 1144.47 146.887 1167.05C147.767 1218.93 151.272 1267.15 154.513 1313.16C155.393 1323.56 156.555 1328.79 157.753 1335.94" stroke="white" stroke-width="70" stroke-linecap="round"/>
<path d="M162.986 1356.94C160.052 1346.34 152.922 1322.68 148.779 1300.47C144.844 1279.37 143.427 1246.46 150.436 1214.07C155.534 1190.51 173.894 1172.33 201.72 1143.07C225.069 1118.52 244.304 1107.16 262.822 1094.73C281.221 1082.37 313.48 1070.44 338.541 1064.17C357.451 1059.44 377.55 1054.4 401.342 1047C420.965 1040.89 443.873 1039 464.461 1038.65C486.303 1038.28 504.949 1046.56 523.757 1053.01C542.169 1059.33 556.62 1070.62 575.411 1081.76C597.579 1094.9 610.651 1109.33 623.868 1125.48C637.551 1142.19 648.797 1167.94 655.603 1191.8C662.78 1216.96 654.152 1250.78 647.324 1271.05C640.965 1289.93 633.42 1307.73 618.618 1322.15C598.925 1341.33 565.935 1354.72 543.142 1367.36C524.588 1377.64 505.504 1381.74 486.828 1387.91C466.696 1394.57 446.293 1396.99 419.649 1401.11C372.125 1408.45 339.717 1399.93 314.682 1394.92C295.259 1391.03 276.774 1384.53 257.784 1380.68C239.358 1376.95 220.481 1370.91 202.363 1364.98C197.9 1363.78 193.206 1363.2 188.44 1362.31C183.675 1361.42 178.981 1360.24 161.699 1357.26" stroke="white" stroke-width="70" stroke-linecap="round"/>
<path d="M47.3616 777.121C57.2943 770.613 97.9157 768.231 135.596 769.692C189.92 770.573 205.171 772.915 225.019 774.676C239.055 775.275 261.139 775.275 296.221 777.036" stroke="white" stroke-width="70" stroke-linecap="round"/>
<path d="M35 910.051C43.154 908.291 65.4321 903.544 95.8755 895.589C133.268 885.818 170.195 872.866 192.817 867.808C213.358 863.214 233.596 861.594 253.003 855.661C257.723 854.458 262.372 853.866 267.092 852.974C271.812 852.082 276.461 850.908 283.012 849.699" stroke="white" stroke-width="70" stroke-linecap="round"/>
<path d="M60.5869 1025.15C66.9974 1023.98 86.898 1016.9 109.211 1011.25C146.622 1001.77 173.193 994.355 192.01 985.776C214.429 975.555 231.908 968.289 252.179 959.985C257.198 958.19 261.847 957.016 266.276 954.651C270.706 952.286 274.774 948.766 278.965 945.139" stroke="white" stroke-width="70" stroke-linecap="round"/>
<path d="M642.618 683.139C647.884 687.788 652.005 701.877 651.712 710.955C651.567 715.468 648.491 719.453 644.935 722.13C641.379 724.807 636.685 725.969 631.626 725.394C626.568 724.82 621.287 722.472 617.686 719.213C614.086 715.953 612.326 711.851 611.997 707.391C611.669 702.931 612.825 698.237 615.455 694.645C618.085 691.054 622.154 688.707 626.283 688.364C630.413 688.021 634.481 689.753 640.434 703.866" stroke="white" stroke-width="70" stroke-linecap="round"/>
<path d="M865.484 872.273C860.186 866.393 851.278 853.958 850.645 846.561C849.201 829.697 875.248 828.443 884.035 828.118C888.257 827.962 891.661 831.872 890.817 833.369C889.973 834.866 884.692 834.866 881.092 836.9C877.491 838.934 875.731 843.002 875.405 847.423C874.736 856.506 881.508 864.77 889.706 870.925C893.637 873.877 897.904 875.336 900.287 873.597C902.671 871.857 903.246 866.582 902.956 861.518C902.666 856.453 901.492 851.759 896.727 852.155" stroke="white" stroke-width="70" stroke-linecap="round"/>
<path d="M891.393 857.439C888.441 862.089 884.885 880.827 880.449 899.636C875.856 919.108 865.362 938.345 852.329 953.957C846.31 961.168 837.5 964.85 828.93 967.782C811.804 973.642 794.276 958.345 778.834 947.97C775.838 944.707 774.077 940.6 771.704 936.723C769.33 932.847 766.396 929.327 759.817 916.809" stroke="white" stroke-width="70" stroke-linecap="round"/>
<path d="M734.823 323.754C744.756 318.437 763.494 311.343 786.688 308.929C796.955 307.165 808.719 305.956 828.585 305.954C841.476 305.951 860.073 305.945 879.234 305.939" stroke="white" stroke-width="70" stroke-linecap="round"/>
<path d="M465.406 258.117C470.654 261.023 485.87 272.734 498.242 287.995C507.638 303.29 516.461 313.258 519.974 321.746C521.744 326.167 523.488 330.816 525.284 339.128" stroke="white" stroke-width="70" stroke-linecap="round"/>
<path d="M423.664 1302.51C417.192 1303.09 398.296 1306.59 379.64 1305.14C370.281 1304.41 363.314 1295.38 358.852 1287.7C349.58 1271.74 383.076 1258.65 400.133 1247.68C426.937 1230.44 479.339 1242.55 498.165 1249.59C506.841 1252.83 513.451 1260.74 519.613 1267.47C522.555 1270.68 521.7 1275.94 519.937 1279.79C512.36 1296.33 488.587 1301.23 470.495 1307.71C452.513 1314.15 395.357 1317.72 357.597 1310.94C347.832 1309.19 348.067 1293.46 347.161 1284C345.178 1263.31 372.031 1249.62 388.18 1239.81C405.175 1229.49 423.666 1224.08 443.637 1221.99C468.19 1219.41 487.05 1225.77 503.234 1234.85C507.237 1237.09 508.817 1242.15 509.721 1246.86C511.596 1256.63 506.5 1265.68 499.708 1272.99C483.976 1289.94 465.065 1297.94 448.789 1307.65C430.811 1318.38 412.389 1316.19 404.405 1312.95C400.486 1311.35 399.349 1305.6 399.314 1301.13C399.157 1281.04 426.805 1266.45 442.972 1260.45C446.608 1259.1 450.299 1263.9 450.91 1267.43C451.522 1270.97 449.152 1275.03 445.59 1277.71C430.509 1289.04 411.305 1279.8 403.609 1275.67C400.238 1273.86 401.735 1268.02 404.057 1263.85C413.988 1245.98 435.103 1236.59 453.313 1227.95C462.113 1223.77 473.865 1224.07 485.585 1225.23C504.96 1227.16 515.568 1241.65 521.14 1249.26C523.732 1252.79 521.458 1258.03 518.794 1261.87C507.786 1277.78 487.131 1283.32 467.865 1288.34C456.154 1291.4 445.014 1285.69 437.039 1281.56C433.006 1279.47 429.645 1276.25 429.285 1272.69C427.463 1254.68 450.603 1242.49 466.753 1231.21C474.93 1225.49 485.843 1224.65 496.093 1224.05C505.761 1224.62 514.039 1228.13 520.484 1234.57C523.443 1238.1 525.768 1242.16 528.163 1246.36" stroke="white" stroke-width="70" stroke-linecap="round"/>
<path d="M244.285 1260.24C245.447 1259.07 250.695 1257.29 258.902 1257.55C266.95 1257.8 268.342 1271.89 268.046 1279.8C267.767 1287.29 252.376 1286.61 241.441 1285.43C231.664 1284.39 225.095 1275.39 220.934 1266.82C218.913 1262.65 220.278 1257.66 222.315 1253.78C226.391 1246 236.081 1242.17 245.16 1240.67C249.589 1240.93 253.657 1243.25 256.044 1246.77C258.43 1250.29 259.011 1254.94 259.61 1265.02" stroke="white" stroke-width="70" stroke-linecap="round"/>
<path d="M319.488 1188.63C318.901 1182.16 316.536 1167.93 316.792 1159.94C316.907 1156.35 322.29 1154.88 326.42 1156.01C335.783 1158.57 340.553 1169.46 342.314 1178.24C343.241 1182.86 340.572 1188.19 337.318 1191.46C334.064 1194.74 329.37 1195.9 324.901 1195.32C320.432 1194.75 316.331 1192.4 313.337 1189.14C307.409 1182.68 306.77 1172.84 308.514 1164.26C309.362 1160.09 313.744 1157.45 318.156 1155.64C327.351 1151.88 337.836 1153.23 346.043 1156.14C350.052 1157.56 351.925 1162.54 352.24 1166.67C352.555 1170.8 350.789 1174.87 347.825 1176.09C344.862 1177.3 340.755 1175.54 337.465 1171.99C330.344 1164.31 328.824 1153.03 329.679 1147.37C334.607 1149.3 339.943 1156.94 342.875 1166.31C344.064 1171.03 344.645 1175.68 345.244 1180.47" stroke="white" stroke-width="70" stroke-linecap="round"/>
<path d="M345.244 1180.47L354.05 1185.75" stroke="white" stroke-width="70" stroke-linecap="round"/>
<path d="M457.21 1143.65C454.863 1145.98 448.374 1147.18 440.953 1144.83C437.927 1143.88 439.977 1137.8 442.028 1133.62C444.08 1129.45 446.986 1125.93 450.807 1124.7C454.629 1123.46 459.278 1124.63 462.255 1127.55C468.411 1133.6 467.591 1146.3 465.244 1156.57C464.234 1160.99 458.203 1161.61 454.024 1160.74C449.846 1159.87 446.325 1156.94 444.509 1148.97C442.693 1141.01 442.687 1128.1 445.009 1120.86C447.331 1113.63 451.98 1112.45 456.409 1113.3C460.838 1114.15 464.906 1117.05 467.874 1120.59C470.841 1124.12 472.585 1128.19 473.187 1132.61C473.789 1137.03 473.197 1141.68 470.544 1143.48C467.892 1145.29 463.198 1144.11 459.9 1141.45C456.602 1138.79 454.841 1134.68 454.806 1130.21C454.771 1125.75 456.515 1121.06 459.447 1119.51C462.379 1117.97 466.447 1119.71 469.415 1122.64C472.382 1125.57 474.126 1129.64 475.024 1134.06C475.922 1138.48 475.922 1143.13 475.922 1147.92" stroke="white" stroke-width="70" stroke-linecap="round"/>
<path d="M551.65 1183.14C551.65 1181.97 550.477 1176.67 551.023 1168.68C551.277 1164.97 557.393 1163.62 560.66 1164.75C563.927 1165.88 565.67 1169.94 566.568 1174.36C567.466 1178.78 567.466 1183.43 565.413 1184.36C563.359 1185.29 559.252 1182.36 556.549 1178.5C553.847 1174.64 552.673 1169.95 552.94 1165.47C553.207 1161 554.951 1156.89 557.593 1156.23C560.234 1155.57 563.721 1158.47 566.389 1162.01C569.057 1165.54 570.801 1169.6 569.645 1172.57C568.49 1175.54 564.383 1177.28 556.595 1177.3" stroke="white" stroke-width="70" stroke-linecap="round"/>
<path d="M1482.61 477.857C1482.03 470.804 1480.85 441.384 1475.46 410.494C1470.48 382.005 1460.69 356.66 1457.14 338.306C1453.37 318.798 1445.5 285.631 1433.48 245.066C1423.48 211.337 1418.95 179.714 1415.15 159.85C1409.42 129.945 1398.44 99.9046 1391.67 76.5471C1386.09 57.2476 1379.65 45.3866 1371.76 40.0524C1352.52 27.0488 1332.15 51.095 1315.69 64.0216C1300.69 75.8078 1284.6 85.1549 1269.31 96.6022C1251.95 109.606 1236.45 119.778 1220.59 131.824C1203.48 144.818 1185.41 162.01 1166.01 178.776C1148.82 193.623 1136.07 207.834 1121.67 221.923C1105.13 238.11 1092.64 255.948 1077.05 270.944C1071.47 278.842 1065.01 287.683 1056.52 297.343C1052.1 302.353 1047.45 307.584 1033.85 320.017" stroke="white" stroke-width="70" stroke-linecap="round"/>
<path d="M1479.6 473.301C1483.12 482.054 1494.96 500.809 1505.93 515.805C1517.27 531.307 1528.14 550.684 1540.29 568.63C1552.44 586.577 1565.43 612.253 1577.34 638.176C1586.16 657.364 1590.39 676.322 1596.61 698.054C1602.64 719.098 1607 741.483 1612.62 758.83C1618.79 777.905 1620.01 799.6 1621.54 916.344C1622.26 972.081 1618.9 1026.19 1618.01 1057.81C1616.13 1124.89 1609.53 1144.78 1606.28 1167.36C1605.4 1219.24 1601.89 1267.46 1598.65 1313.47C1597.77 1323.87 1596.61 1329.1 1595.41 1336.25" stroke="white" stroke-width="70" stroke-linecap="round"/>
<path d="M1590.18 1357.25C1593.11 1346.65 1600.24 1322.99 1604.38 1300.78C1608.32 1279.68 1609.74 1246.77 1602.73 1214.38C1597.63 1190.82 1579.27 1172.64 1551.44 1143.38C1528.09 1118.83 1508.86 1107.47 1490.34 1095.04C1471.94 1082.68 1439.68 1070.75 1414.62 1064.48C1395.71 1059.75 1375.61 1054.71 1351.82 1047.31C1332.2 1041.2 1309.29 1039.32 1288.7 1038.96C1266.86 1038.59 1248.21 1046.87 1229.41 1053.33C1210.99 1059.64 1196.54 1070.93 1177.75 1082.07C1155.58 1095.21 1142.51 1109.64 1129.29 1125.79C1115.61 1142.5 1104.37 1168.25 1097.56 1192.11C1090.38 1217.27 1099.01 1251.09 1105.84 1271.36C1112.2 1290.24 1119.74 1308.04 1134.54 1322.46C1154.24 1341.64 1187.23 1355.03 1210.02 1367.67C1228.57 1377.95 1247.66 1382.05 1266.33 1388.22C1286.47 1394.88 1306.87 1397.3 1333.51 1401.42C1381.04 1408.76 1413.45 1400.24 1438.48 1395.23C1457.9 1391.34 1476.39 1384.84 1495.38 1380.99C1513.8 1377.26 1532.68 1371.22 1550.8 1365.29C1555.26 1364.09 1559.96 1363.51 1564.72 1362.62C1569.49 1361.73 1574.18 1360.55 1591.46 1357.57" stroke="white" stroke-width="70" stroke-linecap="round"/>
<path d="M1705.8 777.431C1695.87 770.924 1655.25 768.541 1617.57 770.003C1563.24 770.883 1547.99 773.226 1528.14 774.987C1514.11 775.586 1492.02 775.586 1456.94 777.347" stroke="white" stroke-width="70" stroke-linecap="round"/>
<path d="M1718.16 910.362C1710.01 908.602 1687.73 903.854 1657.29 895.899C1619.89 886.128 1582.97 873.177 1560.35 868.118C1539.8 863.525 1519.57 861.904 1500.16 855.971C1495.44 854.769 1490.79 854.176 1486.07 853.284C1481.35 852.392 1476.7 851.219 1470.15 850.01" stroke="white" stroke-width="70" stroke-linecap="round"/>
<path d="M1692.58 1025.46C1686.17 1024.29 1666.26 1017.21 1643.95 1011.56C1606.54 1002.08 1579.97 994.666 1561.15 986.087C1538.73 975.866 1521.25 968.599 1500.98 960.296C1495.96 958.5 1491.32 957.327 1486.89 954.962C1482.46 952.597 1478.39 949.076 1474.2 945.449" stroke="white" stroke-width="70" stroke-linecap="round"/>
<path d="M1110.54 683.449C1105.28 688.099 1101.16 702.187 1101.45 711.266C1101.6 715.778 1104.67 719.763 1108.23 722.44C1111.78 725.117 1116.48 726.28 1121.54 725.705C1126.6 725.13 1131.88 722.783 1135.48 719.523C1139.08 716.263 1140.84 712.161 1141.17 707.701C1141.49 703.241 1140.34 698.547 1137.71 694.956C1135.08 691.364 1131.01 689.017 1126.88 688.674C1122.75 688.331 1118.68 690.064 1112.73 704.176" stroke="white" stroke-width="70" stroke-linecap="round"/>
<path d="M887.678 872.583C892.977 866.703 901.885 854.269 902.518 846.872C903.961 830.008 877.915 828.754 869.127 828.428C864.905 828.272 861.501 832.183 862.346 833.68C863.19 835.176 868.47 835.176 872.071 837.211C875.672 839.245 877.432 843.313 877.757 847.733C878.427 856.817 871.655 865.08 863.457 871.235C859.525 874.187 855.259 875.647 852.875 873.907C850.492 872.168 849.916 866.893 850.207 861.828C850.497 856.764 851.67 852.07 856.436 852.466" stroke="white" stroke-width="70" stroke-linecap="round"/>
<path d="M861.77 857.75C864.721 862.399 868.278 881.138 872.714 899.946C877.306 919.419 887.8 938.656 900.834 954.268C906.853 961.478 915.663 965.16 924.233 968.093C941.359 973.952 958.887 958.655 974.329 948.28C977.325 945.017 979.086 940.91 981.459 937.034C983.833 933.158 986.767 929.637 993.345 917.12" stroke="white" stroke-width="70" stroke-linecap="round"/>
<path d="M1018.34 324.064C1008.41 318.748 989.669 311.654 966.475 309.239C956.208 307.476 944.443 306.267 924.578 306.264C911.687 306.261 893.089 306.256 873.928 306.25" stroke="white" stroke-width="70" stroke-linecap="round"/>
<path d="M1287.76 258.428C1282.51 261.334 1267.29 273.045 1254.92 288.305C1245.52 303.6 1236.7 313.568 1233.19 322.057C1231.42 326.477 1229.67 331.127 1227.88 339.439" stroke="white" stroke-width="70" stroke-linecap="round"/>
<path d="M1329.5 1302.82C1335.97 1303.4 1354.87 1306.91 1373.52 1305.45C1382.88 1304.73 1389.85 1295.69 1394.31 1288.01C1403.58 1272.05 1370.09 1258.96 1353.03 1247.99C1326.23 1230.75 1273.82 1242.86 1255 1249.9C1246.32 1253.14 1239.71 1261.05 1233.55 1267.78C1230.61 1270.99 1231.46 1276.25 1233.23 1280.1C1240.8 1296.64 1264.58 1301.54 1282.67 1308.02C1300.65 1314.46 1357.81 1318.03 1395.57 1311.25C1405.33 1309.5 1405.1 1293.77 1406 1284.31C1407.98 1263.62 1381.13 1249.93 1364.98 1240.12C1347.99 1229.8 1329.5 1224.39 1309.53 1222.3C1284.97 1219.72 1266.11 1226.08 1249.93 1235.16C1245.93 1237.4 1244.35 1242.46 1243.44 1247.17C1241.57 1256.94 1246.66 1265.99 1253.45 1273.3C1269.19 1290.25 1288.1 1298.25 1304.37 1307.96C1322.35 1318.69 1340.77 1316.5 1348.76 1313.26C1352.68 1311.67 1353.81 1305.91 1353.85 1301.44C1354.01 1281.35 1326.36 1266.76 1310.19 1260.76C1306.55 1259.41 1302.86 1264.21 1302.25 1267.74C1301.64 1271.28 1304.01 1275.34 1307.57 1278.02C1322.65 1289.36 1341.86 1280.11 1349.55 1275.98C1352.92 1274.17 1351.43 1268.34 1349.11 1264.16C1339.17 1246.29 1318.06 1236.9 1299.85 1228.26C1291.05 1224.08 1279.3 1224.38 1267.58 1225.54C1248.2 1227.47 1237.59 1241.96 1232.02 1249.57C1229.43 1253.11 1231.7 1258.34 1234.37 1262.18C1245.38 1278.09 1266.03 1283.63 1285.3 1288.65C1297.01 1291.71 1308.15 1286.01 1316.12 1281.87C1320.16 1279.78 1323.52 1276.56 1323.88 1273C1325.7 1254.99 1302.56 1242.8 1286.41 1231.52C1278.23 1225.8 1267.32 1224.96 1257.07 1224.37C1247.4 1224.93 1239.12 1228.44 1232.68 1234.88C1229.72 1238.41 1227.39 1242.48 1225 1246.67" stroke="white" stroke-width="70" stroke-linecap="round"/>
<path d="M1508.88 1260.55C1507.72 1259.38 1502.47 1257.6 1494.26 1257.86C1486.21 1258.11 1484.82 1272.2 1485.12 1280.11C1485.4 1287.6 1500.79 1286.92 1511.72 1285.75C1521.5 1284.7 1528.07 1275.7 1532.23 1267.13C1534.25 1262.97 1532.88 1257.97 1530.85 1254.09C1526.77 1246.31 1517.08 1242.49 1508 1240.98C1503.57 1241.24 1499.51 1243.56 1497.12 1247.08C1494.73 1250.61 1494.15 1255.25 1493.55 1265.33" stroke="white" stroke-width="70" stroke-linecap="round"/>
<path d="M1433.68 1188.94C1434.26 1182.47 1436.63 1168.24 1436.37 1160.25C1436.26 1156.66 1430.87 1155.19 1426.74 1156.32C1417.38 1158.88 1412.61 1169.77 1410.85 1178.55C1409.92 1183.17 1412.59 1188.5 1415.84 1191.77C1419.1 1195.05 1423.79 1196.21 1428.26 1195.63C1432.73 1195.06 1436.83 1192.71 1439.83 1189.45C1445.75 1182.99 1446.39 1173.15 1444.65 1164.58C1443.8 1160.4 1439.42 1157.76 1435.01 1155.95C1425.81 1152.19 1415.33 1153.54 1407.12 1156.45C1403.11 1157.88 1401.24 1162.85 1400.92 1166.98C1400.61 1171.11 1402.37 1175.18 1405.34 1176.4C1408.3 1177.61 1412.41 1175.85 1415.7 1172.3C1422.82 1164.62 1424.34 1153.34 1423.48 1147.68C1418.56 1149.61 1413.22 1157.25 1410.29 1166.62C1409.1 1171.34 1408.52 1175.99 1407.92 1180.78" stroke="white" stroke-width="70" stroke-linecap="round"/>
<path d="M1407.92 1180.78L1399.11 1186.06" stroke="white" stroke-width="70" stroke-linecap="round"/>
<path d="M1295.95 1143.96C1298.3 1146.29 1304.79 1147.49 1312.21 1145.14C1315.24 1144.19 1313.19 1138.11 1311.13 1133.93C1309.08 1129.76 1306.18 1126.24 1302.36 1125.01C1298.53 1123.77 1293.88 1124.94 1290.91 1127.86C1284.75 1133.91 1285.57 1146.62 1287.92 1156.88C1288.93 1161.3 1294.96 1161.92 1299.14 1161.05C1303.32 1160.18 1306.84 1157.25 1308.65 1149.28C1310.47 1141.32 1310.48 1128.41 1308.15 1121.17C1305.83 1113.94 1301.18 1112.76 1296.75 1113.61C1292.32 1114.46 1288.26 1117.37 1285.29 1120.9C1282.32 1124.43 1280.58 1128.5 1279.98 1132.92C1279.37 1137.34 1279.97 1141.99 1282.62 1143.79C1285.27 1145.6 1289.96 1144.42 1293.26 1141.76C1296.56 1139.1 1298.32 1134.99 1298.36 1130.53C1298.39 1126.06 1296.65 1121.37 1293.72 1119.82C1290.78 1118.28 1286.72 1120.02 1283.75 1122.95C1280.78 1125.88 1279.04 1129.95 1278.14 1134.37C1277.24 1138.79 1277.24 1143.44 1277.24 1148.23" stroke="white" stroke-width="70" stroke-linecap="round"/>
<path d="M1201.51 1183.45C1201.51 1182.28 1202.69 1176.98 1202.14 1168.99C1201.89 1165.28 1195.77 1163.93 1192.5 1165.06C1189.24 1166.19 1187.49 1170.25 1186.59 1174.67C1185.7 1179.09 1185.7 1183.74 1187.75 1184.67C1189.8 1185.6 1193.91 1182.67 1196.61 1178.81C1199.32 1174.95 1200.49 1170.26 1200.22 1165.78C1199.96 1161.31 1198.21 1157.21 1195.57 1156.54C1192.93 1155.88 1189.44 1158.79 1186.77 1162.32C1184.11 1165.85 1182.36 1169.92 1183.52 1172.88C1184.67 1175.85 1188.78 1177.59 1196.57 1177.61" stroke="white" stroke-width="70" stroke-linecap="round"/>
<path d="M270.549 476.547C271.13 469.493 272.31 440.074 277.704 409.183C282.678 380.695 292.477 355.349 296.026 336.996C299.798 317.487 307.661 284.321 319.687 243.756C329.686 210.027 334.208 178.403 338.016 158.539C343.748 128.634 354.726 98.5941 361.488 75.2366C367.076 55.9371 373.517 44.076 381.407 38.7419C400.64 25.7383 421.014 49.7844 437.472 62.711C452.477 74.4973 468.564 83.8444 483.851 95.2916C501.216 108.296 516.713 118.468 532.572 130.514C549.679 143.508 567.75 160.699 587.158 177.465C604.344 192.313 617.097 206.524 631.494 220.613C648.035 236.8 660.526 254.637 676.111 269.633C681.694 277.532 688.158 286.373 696.646 296.032C701.066 301.043 705.716 306.273 719.312 318.707" stroke="black" stroke-width="40" stroke-linecap="round"/>
<path d="M273.563 471.99C270.043 480.743 258.201 499.499 247.23 514.495C235.89 529.996 225.023 549.374 212.875 567.319C200.726 585.267 187.736 610.942 175.823 636.866C167.006 656.053 162.772 675.012 156.549 696.744C150.523 717.787 146.165 740.173 140.547 757.52C134.368 776.594 133.15 798.29 131.627 915.034C130.9 970.77 134.26 1024.87 135.149 1056.5C137.035 1123.58 143.629 1143.47 146.887 1166.05C147.767 1217.93 151.272 1266.15 154.513 1312.16C155.393 1322.56 156.555 1327.79 157.753 1334.94" stroke="black" stroke-width="40" stroke-linecap="round"/>
<path d="M162.986 1355.94C160.052 1345.34 152.922 1321.68 148.779 1299.47C144.844 1278.37 143.427 1245.46 150.436 1213.07C155.534 1189.51 173.894 1171.33 201.72 1142.07C225.069 1117.52 244.304 1106.16 262.822 1093.73C281.221 1081.37 313.48 1069.44 338.541 1063.17C357.451 1058.44 377.55 1053.4 401.342 1046C420.965 1039.89 443.873 1038 464.461 1037.65C486.303 1037.28 504.949 1045.56 523.757 1052.01C542.169 1058.33 556.62 1069.62 575.411 1080.76C597.579 1093.9 610.651 1108.33 623.868 1124.48C637.551 1141.19 648.797 1166.94 655.603 1190.8C662.78 1215.96 654.152 1249.78 647.324 1270.05C640.965 1288.93 633.42 1306.73 618.618 1321.15C598.925 1340.33 565.935 1353.72 543.142 1366.36C524.588 1376.64 505.504 1380.74 486.828 1386.91C466.696 1393.57 446.293 1395.99 419.649 1400.11C372.125 1407.45 339.717 1398.93 314.682 1393.92C295.259 1390.03 276.774 1383.53 257.784 1379.68C239.358 1375.95 220.481 1369.91 202.363 1363.98C197.9 1362.78 193.206 1362.2 188.44 1361.31C183.675 1360.42 178.981 1359.24 161.699 1356.26" stroke="black" stroke-width="40" stroke-linecap="round"/>
<path d="M47.3616 776.121C57.2943 769.613 97.9157 767.231 135.596 768.692C189.92 769.573 205.171 771.915 225.019 773.676C239.055 774.275 261.139 774.275 296.221 776.036" stroke="black" stroke-width="40" stroke-linecap="round"/>
<path d="M35 909.051C43.154 907.291 65.4321 902.544 95.8755 894.589C133.268 884.818 170.195 871.866 192.817 866.808C213.358 862.214 233.596 860.594 253.003 854.661C257.723 853.458 262.372 852.866 267.092 851.974C271.812 851.082 276.461 849.908 283.012 848.699" stroke="black" stroke-width="40" stroke-linecap="round"/>
<path d="M60.5869 1024.15C66.9974 1022.98 86.898 1015.9 109.211 1010.25C146.622 1000.77 173.193 993.355 192.01 984.776C214.429 974.555 231.908 967.289 252.179 958.985C257.198 957.19 261.847 956.016 266.276 953.651C270.706 951.286 274.774 947.766 278.965 944.139" stroke="black" stroke-width="40" stroke-linecap="round"/>
<path d="M642.618 682.139C647.884 686.788 652.005 700.877 651.712 709.955C651.567 714.468 648.491 718.453 644.935 721.13C641.379 723.807 636.685 724.969 631.626 724.394C626.568 723.82 621.287 721.472 617.686 718.213C614.086 714.953 612.326 710.851 611.997 706.391C611.669 701.931 612.825 697.237 615.455 693.645C618.085 690.054 622.154 687.707 626.283 687.364C630.413 687.021 634.481 688.753 640.434 702.866" stroke="black" stroke-width="40" stroke-linecap="round"/>
<path d="M865.484 871.273C860.186 865.393 851.278 852.958 850.645 845.561C849.201 828.697 875.248 827.443 884.035 827.118C888.257 826.962 891.661 830.872 890.817 832.369C889.973 833.866 884.692 833.866 881.092 835.9C877.491 837.934 875.731 842.002 875.405 846.423C874.736 855.506 881.508 863.77 889.706 869.925C893.637 872.877 897.904 874.336 900.287 872.597C902.671 870.857 903.246 865.582 902.956 860.518C902.666 855.453 901.492 850.759 896.727 851.155" stroke="black" stroke-width="40" stroke-linecap="round"/>
<path d="M891.393 856.439C888.441 861.089 884.885 879.827 880.449 898.636C875.856 918.108 865.362 937.345 852.329 952.957C846.31 960.168 837.5 963.85 828.93 966.782C811.804 972.642 794.276 957.345 778.834 946.97C775.838 943.707 774.077 939.6 771.704 935.723C769.33 931.847 766.396 928.327 759.817 915.809" stroke="black" stroke-width="40" stroke-linecap="round"/>
<path d="M734.823 322.754C744.756 317.437 763.494 310.343 786.688 307.929C796.955 306.165 808.719 304.956 828.585 304.954C841.476 304.951 860.073 304.945 879.234 304.939" stroke="black" stroke-width="40" stroke-linecap="round"/>
<path d="M465.406 257.117C470.654 260.023 485.87 271.734 498.242 286.995C507.638 302.29 516.461 312.258 519.974 320.746C521.744 325.167 523.488 329.816 525.284 338.128" stroke="black" stroke-width="40" stroke-linecap="round"/>
<path d="M423.664 1301.51C417.192 1302.09 398.296 1305.59 379.64 1304.14C370.281 1303.41 363.314 1294.38 358.852 1286.7C349.58 1270.74 383.076 1257.65 400.133 1246.68C426.937 1229.44 479.339 1241.55 498.165 1248.59C506.841 1251.83 513.451 1259.74 519.613 1266.47C522.555 1269.68 521.7 1274.94 519.937 1278.79C512.36 1295.33 488.587 1300.23 470.495 1306.71C452.513 1313.15 395.357 1316.72 357.597 1309.94C347.832 1308.19 348.067 1292.46 347.161 1283C345.178 1262.31 372.031 1248.62 388.18 1238.81C405.175 1228.49 423.666 1223.08 443.637 1220.99C468.19 1218.41 487.05 1224.77 503.234 1233.85C507.237 1236.09 508.817 1241.15 509.721 1245.86C511.596 1255.63 506.5 1264.68 499.708 1271.99C483.976 1288.94 465.065 1296.94 448.789 1306.65C430.811 1317.38 412.389 1315.19 404.405 1311.95C400.486 1310.35 399.349 1304.6 399.314 1300.13C399.157 1280.04 426.805 1265.45 442.972 1259.45C446.608 1258.1 450.299 1262.9 450.91 1266.43C451.522 1269.97 449.152 1274.03 445.59 1276.71C430.509 1288.04 411.305 1278.8 403.609 1274.67C400.238 1272.86 401.735 1267.02 404.057 1262.85C413.988 1244.98 435.103 1235.59 453.313 1226.95C462.113 1222.77 473.865 1223.07 485.585 1224.23C504.96 1226.16 515.568 1240.65 521.14 1248.26C523.732 1251.79 521.458 1257.03 518.794 1260.87C507.786 1276.78 487.131 1282.32 467.865 1287.34C456.154 1290.4 445.014 1284.69 437.039 1280.56C433.006 1278.47 429.645 1275.25 429.285 1271.69C427.463 1253.68 450.603 1241.49 466.753 1230.21C474.93 1224.49 485.843 1223.65 496.093 1223.05C505.761 1223.62 514.039 1227.13 520.484 1233.57C523.443 1237.1 525.768 1241.16 528.163 1245.36" stroke="#FFD6D6" stroke-width="40" stroke-linecap="round"/>
<path d="M244.285 1259.24C245.447 1258.07 250.695 1256.29 258.902 1256.55C266.95 1256.8 268.342 1270.89 268.046 1278.8C267.767 1286.29 252.376 1285.61 241.441 1284.43C231.664 1283.39 225.095 1274.39 220.934 1265.82C218.913 1261.65 220.278 1256.66 222.315 1252.78C226.391 1245 236.081 1241.17 245.16 1239.67C249.589 1239.93 253.657 1242.25 256.044 1245.77C258.43 1249.29 259.011 1253.94 259.61 1264.02" stroke="#FFD6D6" stroke-width="40" stroke-linecap="round"/>
<path d="M319.488 1187.63C318.901 1181.16 316.536 1166.93 316.792 1158.94C316.907 1155.35 322.29 1153.88 326.42 1155.01C335.783 1157.57 340.553 1168.46 342.314 1177.24C343.241 1181.86 340.572 1187.19 337.318 1190.46C334.064 1193.74 329.37 1194.9 324.901 1194.32C320.432 1193.75 316.331 1191.4 313.337 1188.14C307.409 1181.68 306.77 1171.84 308.514 1163.26C309.362 1159.09 313.744 1156.45 318.156 1154.64C327.351 1150.88 337.836 1152.23 346.043 1155.14C350.052 1156.56 351.925 1161.54 352.24 1165.67C352.555 1169.8 350.789 1173.87 347.825 1175.09C344.862 1176.3 340.755 1174.54 337.465 1170.99C330.344 1163.31 328.824 1152.03 329.679 1146.37C334.607 1148.3 339.943 1155.94 342.875 1165.31C344.064 1170.03 344.645 1174.68 345.244 1179.47" stroke="#FFD6D6" stroke-width="40" stroke-linecap="round"/>
<path d="M345.244 1179.47L354.05 1184.75" stroke="#FFD6D6" stroke-width="40" stroke-linecap="round"/>
<path d="M457.21 1142.65C454.863 1144.98 448.374 1146.18 440.953 1143.83C437.927 1142.88 439.977 1136.8 442.028 1132.62C444.08 1128.45 446.986 1124.93 450.807 1123.7C454.629 1122.46 459.278 1123.63 462.255 1126.55C468.411 1132.6 467.591 1145.3 465.244 1155.57C464.234 1159.99 458.203 1160.61 454.024 1159.74C449.846 1158.87 446.325 1155.94 444.509 1147.97C442.693 1140.01 442.687 1127.1 445.009 1119.86C447.331 1112.63 451.98 1111.45 456.409 1112.3C460.838 1113.15 464.906 1116.05 467.874 1119.59C470.841 1123.12 472.585 1127.19 473.187 1131.61C473.789 1136.03 473.197 1140.68 470.544 1142.48C467.892 1144.29 463.198 1143.11 459.9 1140.45C456.602 1137.79 454.841 1133.68 454.806 1129.21C454.771 1124.75 456.515 1120.06 459.447 1118.51C462.379 1116.97 466.447 1118.71 469.415 1121.64C472.382 1124.57 474.126 1128.64 475.024 1133.06C475.922 1137.48 475.922 1142.13 475.922 1146.92" stroke="#FFD6D6" stroke-width="40" stroke-linecap="round"/>
<path d="M551.65 1182.14C551.65 1180.97 550.477 1175.67 551.023 1167.68C551.277 1163.97 557.393 1162.62 560.66 1163.75C563.927 1164.88 565.67 1168.94 566.568 1173.36C567.466 1177.78 567.466 1182.43 565.413 1183.36C563.359 1184.29 559.252 1181.36 556.549 1177.5C553.847 1173.64 552.673 1168.95 552.94 1164.47C553.207 1160 554.951 1155.89 557.593 1155.23C560.234 1154.57 563.721 1157.47 566.389 1161.01C569.057 1164.54 570.801 1168.6 569.645 1171.57C568.49 1174.54 564.383 1176.28 556.595 1176.3" stroke="#FFD6D6" stroke-width="40" stroke-linecap="round"/>
<path d="M1482.61 476.857C1482.03 469.804 1480.85 440.384 1475.46 409.494C1470.48 381.005 1460.69 355.66 1457.14 337.306C1453.37 317.798 1445.5 284.631 1433.48 244.066C1423.48 210.337 1418.95 178.714 1415.15 158.85C1409.41 128.945 1398.44 98.9046 1391.67 75.5471C1386.09 56.2476 1379.65 44.3866 1371.76 39.0524C1352.52 26.0488 1332.15 50.095 1315.69 63.0216C1300.69 74.8078 1284.6 84.1549 1269.31 95.6022C1251.95 108.606 1236.45 118.778 1220.59 130.824C1203.48 143.818 1185.41 161.01 1166.01 177.776C1148.82 192.623 1136.07 206.834 1121.67 220.923C1105.13 237.11 1092.64 254.948 1077.05 269.944C1071.47 277.842 1065.01 286.683 1056.52 296.343C1052.1 301.353 1047.45 306.584 1033.85 319.017" stroke="black" stroke-width="40" stroke-linecap="round"/>
<path d="M1479.6 472.301C1483.12 481.054 1494.96 499.809 1505.93 514.805C1517.27 530.307 1528.14 549.684 1540.29 567.63C1552.44 585.577 1565.43 611.253 1577.34 637.176C1586.16 656.364 1590.39 675.322 1596.61 697.054C1602.64 718.098 1607 740.483 1612.62 757.83C1618.79 776.905 1620.01 798.6 1621.54 915.344C1622.26 971.081 1618.9 1025.19 1618.01 1056.81C1616.13 1123.89 1609.53 1143.78 1606.28 1166.36C1605.4 1218.24 1601.89 1266.46 1598.65 1312.47C1597.77 1322.87 1596.61 1328.1 1595.41 1335.25" stroke="black" stroke-width="40" stroke-linecap="round"/>
<path d="M1590.18 1356.25C1593.11 1345.65 1600.24 1321.99 1604.38 1299.78C1608.32 1278.68 1609.74 1245.77 1602.73 1213.38C1597.63 1189.82 1579.27 1171.64 1551.44 1142.38C1528.09 1117.83 1508.86 1106.47 1490.34 1094.04C1471.94 1081.68 1439.68 1069.75 1414.62 1063.48C1395.71 1058.75 1375.61 1053.71 1351.82 1046.31C1332.2 1040.2 1309.29 1038.32 1288.7 1037.96C1266.86 1037.59 1248.21 1045.87 1229.41 1052.33C1210.99 1058.64 1196.54 1069.93 1177.75 1081.07C1155.58 1094.21 1142.51 1108.64 1129.29 1124.79C1115.61 1141.5 1104.37 1167.25 1097.56 1191.11C1090.38 1216.27 1099.01 1250.09 1105.84 1270.36C1112.2 1289.24 1119.74 1307.04 1134.54 1321.46C1154.24 1340.64 1187.23 1354.03 1210.02 1366.67C1228.57 1376.95 1247.66 1381.05 1266.33 1387.22C1286.47 1393.88 1306.87 1396.3 1333.51 1400.42C1381.04 1407.76 1413.45 1399.24 1438.48 1394.23C1457.9 1390.34 1476.39 1383.84 1495.38 1379.99C1513.8 1376.26 1532.68 1370.22 1550.8 1364.29C1555.26 1363.09 1559.96 1362.51 1564.72 1361.62C1569.49 1360.73 1574.18 1359.55 1591.46 1356.57" stroke="black" stroke-width="40" stroke-linecap="round"/>
<path d="M1705.8 776.431C1695.87 769.924 1655.25 767.541 1617.57 769.003C1563.24 769.883 1547.99 772.226 1528.14 773.987C1514.11 774.586 1492.02 774.586 1456.94 776.347" stroke="black" stroke-width="40" stroke-linecap="round"/>
<path d="M1718.16 909.362C1710.01 907.602 1687.73 902.854 1657.29 894.899C1619.89 885.128 1582.97 872.177 1560.35 867.118C1539.8 862.525 1519.57 860.904 1500.16 854.971C1495.44 853.769 1490.79 853.176 1486.07 852.284C1481.35 851.392 1476.7 850.219 1470.15 849.01" stroke="black" stroke-width="40" stroke-linecap="round"/>
<path d="M1692.58 1024.46C1686.17 1023.29 1666.26 1016.21 1643.95 1010.56C1606.54 1001.08 1579.97 993.666 1561.15 985.087C1538.73 974.866 1521.25 967.599 1500.98 959.296C1495.96 957.5 1491.32 956.327 1486.89 953.962C1482.46 951.597 1478.39 948.076 1474.2 944.449" stroke="black" stroke-width="40" stroke-linecap="round"/>
<path d="M1110.54 682.449C1105.28 687.099 1101.16 701.187 1101.45 710.266C1101.6 714.778 1104.67 718.763 1108.23 721.44C1111.78 724.117 1116.48 725.28 1121.54 724.705C1126.59 724.13 1131.88 721.783 1135.48 718.523C1139.08 715.263 1140.84 711.161 1141.17 706.701C1141.49 702.241 1140.34 697.547 1137.71 693.956C1135.08 690.364 1131.01 688.017 1126.88 687.674C1122.75 687.331 1118.68 689.064 1112.73 703.176" stroke="black" stroke-width="40" stroke-linecap="round"/>
<path d="M887.678 871.583C892.977 865.703 901.885 853.269 902.518 845.872C903.961 829.008 877.915 827.754 869.127 827.428C864.905 827.272 861.501 831.183 862.346 832.68C863.19 834.176 868.47 834.176 872.071 836.211C875.672 838.245 877.432 842.313 877.757 846.733C878.427 855.817 871.655 864.08 863.457 870.235C859.525 873.187 855.259 874.647 852.875 872.907C850.492 871.168 849.916 865.893 850.207 860.828C850.497 855.764 851.67 851.07 856.436 851.466" stroke="black" stroke-width="40" stroke-linecap="round"/>
<path d="M861.77 856.75C864.721 861.399 868.277 880.138 872.714 898.946C877.306 918.419 887.8 937.656 900.833 953.268C906.852 960.478 915.662 964.16 924.232 967.093C941.358 972.952 958.887 957.655 974.329 947.28C977.325 944.017 979.085 939.91 981.459 936.034C983.833 932.158 986.766 928.637 993.345 916.12" stroke="black" stroke-width="40" stroke-linecap="round"/>
<path d="M1018.34 323.064C1008.41 317.748 989.669 310.654 966.475 308.239C956.207 306.476 944.443 305.267 924.578 305.264C911.686 305.261 893.089 305.256 873.928 305.25" stroke="black" stroke-width="40" stroke-linecap="round"/>
<path d="M1287.76 257.428C1282.51 260.334 1267.29 272.045 1254.92 287.305C1245.52 302.6 1236.7 312.568 1233.19 321.057C1231.42 325.477 1229.67 330.127 1227.88 338.439" stroke="black" stroke-width="40" stroke-linecap="round"/>
<path d="M1329.5 1301.82C1335.97 1302.4 1354.87 1305.91 1373.52 1304.45C1382.88 1303.73 1389.85 1294.69 1394.31 1287.01C1403.58 1271.05 1370.09 1257.96 1353.03 1246.99C1326.23 1229.75 1273.82 1241.86 1255 1248.9C1246.32 1252.14 1239.71 1260.05 1233.55 1266.78C1230.61 1269.99 1231.46 1275.25 1233.23 1279.1C1240.8 1295.64 1264.58 1300.54 1282.67 1307.02C1300.65 1313.46 1357.81 1317.03 1395.57 1310.25C1405.33 1308.5 1405.1 1292.77 1406 1283.31C1407.98 1262.62 1381.13 1248.93 1364.98 1239.12C1347.99 1228.8 1329.5 1223.39 1309.53 1221.3C1284.97 1218.72 1266.11 1225.08 1249.93 1234.16C1245.93 1236.4 1244.35 1241.46 1243.44 1246.17C1241.57 1255.94 1246.66 1264.99 1253.45 1272.3C1269.19 1289.25 1288.1 1297.25 1304.37 1306.96C1322.35 1317.69 1340.77 1315.5 1348.76 1312.26C1352.68 1310.67 1353.81 1304.91 1353.85 1300.44C1354.01 1280.35 1326.36 1265.76 1310.19 1259.76C1306.55 1258.41 1302.86 1263.21 1302.25 1266.74C1301.64 1270.28 1304.01 1274.34 1307.57 1277.02C1322.65 1288.36 1341.86 1279.11 1349.55 1274.98C1352.92 1273.17 1351.43 1267.34 1349.11 1263.16C1339.17 1245.29 1318.06 1235.9 1299.85 1227.26C1291.05 1223.08 1279.3 1223.38 1267.58 1224.54C1248.2 1226.47 1237.59 1240.96 1232.02 1248.57C1229.43 1252.11 1231.7 1257.34 1234.37 1261.18C1245.38 1277.09 1266.03 1282.63 1285.3 1287.65C1297.01 1290.71 1308.15 1285.01 1316.12 1280.87C1320.16 1278.78 1323.52 1275.56 1323.88 1272C1325.7 1253.99 1302.56 1241.8 1286.41 1230.52C1278.23 1224.8 1267.32 1223.96 1257.07 1223.37C1247.4 1223.93 1239.12 1227.44 1232.68 1233.88C1229.72 1237.41 1227.39 1241.48 1225 1245.67" stroke="#FFD6D6" stroke-width="40" stroke-linecap="round"/>
<path d="M1508.88 1259.55C1507.72 1258.38 1502.47 1256.6 1494.26 1256.86C1486.21 1257.11 1484.82 1271.2 1485.12 1279.11C1485.4 1286.6 1500.79 1285.92 1511.72 1284.75C1521.5 1283.7 1528.07 1274.7 1532.23 1266.13C1534.25 1261.97 1532.88 1256.97 1530.85 1253.09C1526.77 1245.31 1517.08 1241.49 1508 1239.98C1503.57 1240.24 1499.51 1242.56 1497.12 1246.08C1494.73 1249.61 1494.15 1254.25 1493.55 1264.33" stroke="#FFD6D6" stroke-width="40" stroke-linecap="round"/>
<path d="M1433.67 1187.94C1434.26 1181.47 1436.63 1167.24 1436.37 1159.25C1436.26 1155.66 1430.87 1154.19 1426.74 1155.32C1417.38 1157.88 1412.61 1168.77 1410.85 1177.55C1409.92 1182.17 1412.59 1187.5 1415.84 1190.77C1419.1 1194.05 1423.79 1195.21 1428.26 1194.63C1432.73 1194.06 1436.83 1191.71 1439.83 1188.45C1445.75 1181.99 1446.39 1172.15 1444.65 1163.58C1443.8 1159.4 1439.42 1156.76 1435.01 1154.95C1425.81 1151.19 1415.33 1152.54 1407.12 1155.45C1403.11 1156.88 1401.24 1161.85 1400.92 1165.98C1400.61 1170.11 1402.37 1174.18 1405.34 1175.4C1408.3 1176.61 1412.41 1174.85 1415.7 1171.3C1422.82 1163.62 1424.34 1152.34 1423.48 1146.68C1418.56 1148.61 1413.22 1156.25 1410.29 1165.62C1409.1 1170.34 1408.52 1174.99 1407.92 1179.78" stroke="#FFD6D6" stroke-width="40" stroke-linecap="round"/>
<path d="M1407.92 1179.78L1399.11 1185.06" stroke="#FFD6D6" stroke-width="40" stroke-linecap="round"/>
<path d="M1295.95 1142.96C1298.3 1145.29 1304.79 1146.49 1312.21 1144.14C1315.24 1143.19 1313.19 1137.11 1311.13 1132.93C1309.08 1128.76 1306.18 1125.24 1302.36 1124.01C1298.53 1122.77 1293.88 1123.94 1290.91 1126.86C1284.75 1132.91 1285.57 1145.62 1287.92 1155.88C1288.93 1160.3 1294.96 1160.92 1299.14 1160.05C1303.32 1159.18 1306.84 1156.25 1308.65 1148.28C1310.47 1140.32 1310.48 1127.41 1308.15 1120.17C1305.83 1112.94 1301.18 1111.76 1296.75 1112.61C1292.32 1113.46 1288.26 1116.37 1285.29 1119.9C1282.32 1123.43 1280.58 1127.5 1279.98 1131.92C1279.37 1136.34 1279.97 1140.99 1282.62 1142.79C1285.27 1144.6 1289.96 1143.42 1293.26 1140.76C1296.56 1138.1 1298.32 1133.99 1298.36 1129.53C1298.39 1125.06 1296.65 1120.37 1293.72 1118.82C1290.78 1117.28 1286.72 1119.02 1283.75 1121.95C1280.78 1124.88 1279.04 1128.95 1278.14 1133.37C1277.24 1137.79 1277.24 1142.44 1277.24 1147.23" stroke="#FFD6D6" stroke-width="40" stroke-linecap="round"/>
<path d="M1201.51 1182.45C1201.51 1181.28 1202.69 1175.98 1202.14 1167.99C1201.89 1164.28 1195.77 1162.93 1192.5 1164.06C1189.24 1165.19 1187.49 1169.25 1186.59 1173.67C1185.7 1178.09 1185.7 1182.74 1187.75 1183.67C1189.8 1184.6 1193.91 1181.67 1196.61 1177.81C1199.32 1173.95 1200.49 1169.26 1200.22 1164.78C1199.96 1160.31 1198.21 1156.21 1195.57 1155.54C1192.93 1154.88 1189.44 1157.79 1186.77 1161.32C1184.11 1164.85 1182.36 1168.92 1183.52 1171.88C1184.67 1174.85 1188.78 1176.59 1196.57 1176.61" stroke="#FFD6D6" stroke-width="40" stroke-linecap="round"/>
</svg>
